<?xml version="1.0" encoding="UTF-8"?>
<!-- Created with Inkscape (http://www.inkscape.org/) -->
<svg width="125mm" height="105mm" version="1.1" viewBox="0 0 125 105" xml:space="preserve" xmlns="http://www.w3.org/2000/svg"><defs><rect x="931.32312" y="99.784615" width="574.51752" height="725.7063"/><linearGradient><stop offset="0"/></linearGradient><rect x="74.834648" y="324.99619" width="560.1908" height="203.1226"/></defs><path transform="rotate(180.04715)" d="m-265.17516-169.87048a25.61237 23.657082 0 0 1-24.25455 16.20605 25.61237 23.657082 0 0 1-24.32872-16.1109" fill-opacity="0" stroke="#000" stroke-dasharray="2.652, 2.652" stroke-linejoin="round" stroke-width="2.652"/><path d="m358.71446 66.743067c-10.44381 0.0813-20.1183 5.14483-27.42107 14.89625-3.69863 4.93883-6.40706 11.84349-5.1418 13.10876 1.04257 1.04259 2.01498 0.0864 2.60398-2.56108 1.96125-8.81545 12.22162-18.99987 21.90925-21.74699 12.47157-3.53664 24.54637 0.52718 36.38641 12.24628 2.22325 2.20047 3.07321 2.6037 3.75533 1.7818 1.04689-1.26144-5.93299-8.3509-11.48147-11.66182-6.90478-4.12025-13.91588-6.1153-20.61063-6.0632zm9.28987 21.62401c-0.59333-0.0213-1.15219 0.16862-1.50327 0.61495-0.94998 1.20764-0.66049 2.78227 0.64234 3.49487 1.83565 1.00402 4.01477-0.61073 3.3135-2.45514-0.3792-0.99738-1.46369-1.61915-2.45257-1.65468zm40.8187 0.96531c4e-3 0.0138 8e-3 0.0275 0.0134 0.0413 2e-3 6e-3 4e-3 -0.0126 1e-3 -0.0186-4e-3 -8e-3 -0.01-0.0153-0.0145-0.0227zm0.16071 0.31781c6e-3 0.037 9e-3 0.0748 0.0114 0.11266 0.01-8e-3 0.0187-0.0145 0.0279-0.0217-0.0128-0.0343-0.0263-0.059-0.0393-0.0909zm0.4005 1.39527c-0.0118 5e-3 -0.0254 0.01-0.0372 0.0145-3e-5 9e-3 2e-5 0.0179 0 0.0269 0.0142-6e-3 0.0285-0.0109 0.0429-0.0165-2e-3 -9e-3 -4e-3 -0.016-6e-3 -0.0248zm-15.68484 0.58756c-2.32222 6e-3 -4.57803 1.19655-5.8322 3.63078-2.07046 4.01868 1.00351 10.498563 5.79913 12.225103 3.74204 1.34723 9.9712-3.36524 6.61562-5.00487-0.99269-0.48505-0.99265-0.48489-2.21279 0.58912-2.3182 2.04051-6.71638 1.27034-6.71638-1.17616 0-0.39548 0.0231-0.40305 3.30729-1.0418 7.52773-1.464093 7.4703-1.417303 5.8291-4.771803-1.44074-2.94478-4.15791-4.45761-6.78977-4.45037zm15.87862 0.35863c-8e-3 2e-3 -0.0165 4e-3 -0.0253 6e-3 -0.0272 0.0354-0.0614 0.0649-0.0951 0.0956 4e-3 2e-3 8e-3 4e-3 0.0124 6e-3 0.0371-0.0147 0.0754-0.0303 0.11369-0.046 1e-4 -0.0165-4e-3 -0.0421-6e-3 -0.0615zm-0.21342 0.19741c-0.0103 0.011-0.0199 0.0208-0.0284 0.03 0.0449 0.01 0.0834 0.0168 0.11834 0.0222 0.0108-2e-3 0.0226-4e-3 0.032-7e-3 -0.0407-0.0147-0.0815-0.0291-0.12196-0.045zm-4.84673 0.22117c0.0172 0.059 0.0389 0.11757 0.0553 0.17673 6e-3 -1e-3 0.0117-3e-3 0.0176-5e-3 -0.0214-0.0588-0.0448-0.11649-0.0729-0.17157zm-20.49849 1.01751c-0.43378 8e-3 -1.0012 0.10537-1.69964 0.23926-1.21669 0.23324-3.44669 0.57156-4.95577 0.75189-2.52418 0.30163-3.73834 2.15639-2.33216 3.56258 0.12848 0.12848 4.47622-0.6916 5.14232-0.96997 0.99288-0.41495 0.57746 1.19978-1.94613 7.570603-1.21592 3.06948-1.35904 3.9626-0.86455 5.38106 0.24288 0.6963 0.40233 0.82518 0.8599 0.69402 0.93439-0.26782 8.17772-1.70189 9.02839-1.78749 0.76634-0.0771 0.79576-0.13034 0.86196-1.53531 0.10352-2.19573-0.0314-2.29342-2.43499-1.76526-1.1078 0.24342-2.40093 0.44235-2.87373 0.44235-0.47281 0-1.12404 0.18532-1.44746 0.41186-0.96883 0.6786-0.76039-0.56637 0.63562-3.79719 3.28274-7.597233 3.90593-9.234543 2.02624-9.198403zm9.82213 1.22163c1.14877-0.0118 2.33289 0.51644 3.06287 1.69757 0.78678 1.27306 0.76509 1.29064-2.17816 1.79886-1.49158 0.25756-3.03941 0.53962-3.43959 0.62632-0.704 0.15253-0.7276 0.12124-0.7276-0.96274 0-1.9721 1.60352-3.14282 3.28248-3.16001zm-22.82444 0.78186c-3.04155 0.0204-3.04139 0.0183-0.18242 9.918783 0.63033 2.18281 1.22713 4.38547 1.32653 4.89479s0.24273 1.14481 0.31833 1.4118c0.0966 0.3408 0.30702 0.44492 0.70797 0.34882 0.3137-0.0752 1.01565-0.21756 1.56011-0.31626 1.11471-0.20199 1.09732 0.14151 0.18293-3.56413-0.26979-1.09336-0.67071-2.49873-0.8909-3.1228-0.22017-0.62406-0.6993-2.54997-1.06453-4.27985-0.79532-3.766793-1.36079-5.295153-1.95802-5.291153zm-10.25726 1.83297c-1.57983 0.0437-3.05097 0.66953-3.66489 1.85673-0.51388 0.993733-0.55595 0.993693-1.06402 0.0114-0.44429-0.85918-1.72014-1.09531-2.79828-0.51831-0.58622 0.31374-0.55723 0.5622 0.42427 3.693313 0.34211 1.09141 1.03921 3.59172 1.54926 5.55625 0.51003 1.96453 1.17704 4.37555 1.48208 5.35781 0.61205 1.97091 0.75838 2.05125 2.74298 1.50017 1.26638-0.35163 1.22672-0.95058-0.37724-5.72316-2.15049-6.39891-1.78755-8.27857 1.59887-8.27857 2.14158 0 2.78066 1.10183 4.50515 7.76904 1.21756 4.7072 1.51114 5.07024 3.63906 4.49998 1.2929-0.34649-1.77749-11.97627-3.71967-14.089063-1.049-1.1412-2.73774-1.67927-4.31757-1.63556zm-44.03348 2.54351c-1.37302-0.0312-2.95826 0.1068-4.79351 0.398943-4.61064 0.73395-4.2902 0.17537-3.01222 5.2555 0.50143 1.99324 1.33143 5.66122 1.84433 8.15144 1.29688 6.2965 1.76655 8.33127 2.04742 8.86819 0.28157 0.53826 0.84714 0.58239 2.1022 0.16278 1.334-0.44601 1.32997-0.42478 0.63304-3.27577-0.89489-3.66071-1.01595-3.36998 1.64434-3.95325 6.48826-1.42249 9.11421-5.21006 7.18561-10.36474-1.32238-3.53436-3.53218-5.149503-7.65121-5.243093zm27.73835 0.209813c-5.10331 9e-3 -9.11417 5.57055-5.82858 11.94707 1.16891 2.26859 2.08989 3.22515 4.0504 4.20595 7.68142 3.84281 14.12789-7.03538 7.89926-13.32994-1.95975-1.98049-4.12413-2.82674-6.12108-2.82308zm-10.06243 1.81901c-1.13578-0.0464-2.80962 0.97181-3.65197 2.54248-0.46522 0.86745-0.46531 0.86728-0.65164-0.23565-0.18634-1.10286-0.186-1.10301-1.62213-0.98391-2.03171 0.16849-2.026 0.13695-0.86816 4.57181 0.56989 2.18281 1.33341 5.27844 1.69654 6.87917 0.36313 1.60066 0.8496 3.41643 1.08107 4.03489 0.46702 1.24783 0.45907 1.24511 2.11201 0.82889 1.44623-0.36417 1.44118-0.12097 0.11731-5.49217-1.58299-6.42241-1.11788-8.34636 2.06861-8.55193 1.37291-0.0886 1.52283-0.6139 0.80511-2.82257-0.1654-0.50899-0.57048-0.74994-1.08675-0.77101zm-17.79426 1.28881c5.61064-0.0649 6.23129 6.95378 0.7493 8.4739-3.43634 0.95288-3.27723 1.0728-4.32738-3.27267-0.50113-2.07367-0.91371-3.88937-0.91571-4.03489-6e-3 -0.34051 3.11538-1.15034 4.49379-1.16634zm28.14091 0.43253v5.2e-4c1.58086 0.0541 3.29818 1.03921 4.40025 3.22099 0.98905 1.95802 0.32495 4.92559-1.39216 6.22081-2.11735 1.59713-5.11988-0.027-6.40633-3.46542-1.32461-3.54035 0.65312-5.86751 3.08405-5.97483 0.10396-5e-3 0.2088-5e-3 0.31419-2e-3zm52.61953 10.07742c-0.67261 0.0388-1.69348 1.16924-2.44791 3.35639-7.35163 21.31275-29.91799 28.8374-47.5717 18.88304-3.6064-2.03353-7.00777-4.7965-10.03254-8.32038-1.81269-2.11181-1.97379-2.23315-2.80654-2.1146-2.04039 0.29046-1.88924 1.05535 0.82785 4.18786 6.46624 7.45479 16.39926 12.61537 25.85269 13.43225 15.77793 1.3634 31.81457-10.15003 36.53472-26.22992 0.64008-2.18053 0.31604-3.23349-0.35657-3.19464z"/><g transform="matrix(1.6076113,0,0,1.6085481,-46.669106,-31.20389)" stroke="#f9c4ac"><g transform="matrix(.27395841 0 0 .26454229 -29.931023 -47.504503)" fill="#f9c4ac" stroke-linejoin="round" stroke-width=".373115" style="shape-inside:url(#rect236);white-space:pre" aria-label="Pronize"><path d="m237.84309 346.64756q7.55999 0 12.69333 2.42667 5.13333 2.33333 7.65333 6.62666 2.61333 4.2 2.61333 9.8 0 5.78666-2.61333 10.35999-2.61334 4.57333-7.93333 7.28-5.32 2.61333-12.97333 2.61333h-9.42667v21.37333h-10.63999v-60.47998zm-1.49334 30.33332q13.44 0 13.44-11.10666 0-5.13333-3.08-7.74666-3.08-2.70667-9.05333-2.70667h-9.8v21.55999z"/><path d="m291.13642 364.47422q2.61334 0 5.41334 0.84l-1.68 10.26666q-1.49334-0.56-2.8-0.84-1.30667-0.28-2.89334-0.28-2.70666 0-5.13333 1.21334-2.33333 1.21333-4.66666 4.57333v26.87999h-10.08v-41.34665l10.08-0.93334v5.88q2.24-3.08 5.22666-4.66666 3.08-1.58667 6.53333-1.58667z"/><path d="m319.50973 408.34087q-6.72 0-11.29333-2.89333-4.57333-2.98667-6.90667-7.93333-2.24-5.04-2.24-11.2 0-7.74666 2.89334-12.59999 2.98666-4.85334 7.93333-7 4.94666-2.24 11.10666-2.24 6.81333 0 11.38666 2.89333 4.57333 2.8 6.81333 7.74667 2.33333 4.94666 2.33333 11.29332 0 7.65333-2.98666 12.6-2.89333 4.85333-7.84 7.09333-4.94666 2.24-11.19999 2.24zm0.74666-7.84q5.78667 0 8.21333-3.73333 2.52-3.82666 2.52-10.45333 0-6.62666-2.61333-10.26666-2.52-3.73333-7.84-3.73333-5.87999 0-8.49333 3.64-2.52 3.63999-2.52 10.35999 0 6.53333 2.61334 10.36 2.70666 3.82666 8.11999 3.82666z"/><path d="m375.41632 364.47422q6.06666 0 9.33333 3.17333 3.35999 3.08 3.35999 9.70666v29.77333h-10.07999v-26.50666q0-3.08-0.65334-4.76-0.56-1.77333-2.05333-2.52-1.4-0.74666-3.92-0.74666-4.75999 0-10.54666 2.89333v31.63999h-10.08v-41.25332l10.08-1.02667v4.01333q7.56-4.38666 14.56-4.38666z"/><path d="m404.81635 358.31422q-1.77333 0-3.36-0.84-1.49333-0.93333-2.42667-2.42666-0.93333-1.58667-0.93333-3.36t0.93333-3.26667q0.93334-1.58666 2.42667-2.52 1.58667-0.93333 3.36-0.93333 1.86666 0 3.45333 0.93333 1.58667 0.93334 2.52 2.52 0.93333 1.49334 0.93333 3.26667t-0.93333 3.36q-0.93333 1.49333-2.52 2.42666-1.58667 0.84-3.45333 0.84zm-4.85333 48.81332v-41.25332l10.07999-1.02667v42.27999z"/><path d="m453.72302 365.78089v4.38666l-21.18665 28.46666h21.09332v8.49333h-35.46665v-4.57334l21.46666-28.27998h-19.97333l1.12-8.49333z"/><path d="m496.74963 382.20755q0 2.89333-0.28 6.25333h-27.81332q0.37333 6.15999 3.45333 9.05333 3.17333 2.89333 7.84 2.89333 3.35999 0 6.06666-0.84 2.70667-0.93333 6.16-2.89333l3.54666 6.53333q-3.36 2.33333-7.55999 3.73333-4.10667 1.4-8.96 1.4-5.97333 0-10.64-2.14667-4.57333-2.14666-7.27999-6.90666-2.70667-4.76-2.70667-12.32 0-6.53333 2.33333-11.57332 2.33334-5.13334 6.90667-8.02667t11.01333-2.89333q5.78666 0 9.79999 2.33333 4.01333 2.24 6.06667 6.34667 2.05333 4.01333 2.05333 9.05333zm-17.82666-10.45333q-4.10667 0-6.53333 2.52-2.42667 2.51999-3.26667 7.18666h17.92v-0.28q0-4.85333-2.24-7.09333-2.14667-2.33333-5.88-2.33333z"/></g><path d="m94.548056 64.786786a28.529646 27.22596 0 0 1-27.017162 18.650874 28.529646 27.22596 0 0 1-27.099793-18.541378" fill-opacity="0" stroke-linecap="round" stroke-linejoin="bevel" stroke-width="1.64917"/><path transform="scale(1,-1)" d="m94.340963-39.40713a28.529646 27.22596 0 0 1-27.017161 18.650874 28.529646 27.22596 0 0 1-27.099793-18.541378" fill-opacity="0" stroke-dashoffset="500.963" stroke-linecap="round" stroke-linejoin="round" stroke-width="1.64917"/></g><text transform="scale(.26458333)" fill-opacity="0" font-family="Dubai" font-size="93.3333px" font-weight="500" stroke="#000000" stroke-dashoffset="1893.4" stroke-linecap="round" stroke-linejoin="bevel" stroke-width="10.0233" text-align="center" style="shape-inside:url(#rect12547);white-space:pre" xml:space="preserve"/></svg>
